<svg width="384" height="113" viewBox="0 0 384 113" fill="none" xmlns="http://www.w3.org/2000/svg">
<g clip-path="url(#clip0_115_248)">
<path d="M383.672 22.6671L378.102 75.4008L378.027 76.059L373.826 109.227C373.745 109.929 373.537 111.412 373.163 111.942C372.772 112.495 372.206 112.9 371.512 112.982C370.818 113.064 370.132 112.854 369.521 112.559C368.95 112.285 368.456 111.911 367.949 111.543C363.668 108.438 359.124 105.721 354.708 102.806C354.109 102.409 353.295 101.59 350.825 101.59H19.013C7.1039 101.459 -1.85098 91.7185 0.327582 77.4088L6.66102 20.6565C8.46838 9.7635 16.2713 0 25.3516 0H364.987C376.893 0.130624 385.851 8.35738 383.672 22.6671Z" fill="#034EFF"/>
<path d="M45.2276 71.815C33.4849 71.815 25.6001 65.0559 25.6001 51.6144V31.0117H36.4596V51.6144C36.4596 58.5349 40.0001 61.675 45.2276 61.675C50.4551 61.675 53.9956 58.5375 53.9956 51.6144V31.0117H64.8551V51.6144C64.8551 64.9739 56.9729 71.815 45.2276 71.815ZM72.7323 70.7675V47.9108C72.7323 35.7577 79.89 29.9641 90.4295 29.9641C100.969 29.9641 107.966 35.6783 108.045 48.0722V48.313H97.1854V47.9108C97.1854 42.0353 94.3694 40.1041 90.4295 40.1041C86.4897 40.1041 83.5918 42.0353 83.5918 47.9108V70.7675H72.7323ZM134.185 71.815C121.879 71.815 113.029 63.6856 113.029 50.4875V13.6284H123.889V36.0804C126.543 32.0567 130.888 29.9641 136.115 29.9641C145.446 29.9641 155.661 36.7233 155.661 50.4055C155.661 63.2015 146.814 71.8125 134.185 71.8125V71.815ZM134.264 61.675C140.457 61.675 144.64 57.2492 144.64 50.8921C144.64 44.5351 140.457 40.1093 134.264 40.1093C128.072 40.1093 123.889 44.5351 123.889 50.8921C123.889 57.2492 128.072 61.675 134.264 61.675ZM179.825 71.815C170.655 71.815 160.358 65.0559 160.358 51.3737C160.358 38.5776 169.206 29.9667 181.834 29.9667C194.463 29.9667 202.99 38.3369 202.99 51.2943V70.77H193.016V63.6088C190.764 69.0002 185.859 71.8176 179.825 71.8176V71.815ZM181.755 61.675C187.948 61.675 192.131 57.2492 192.131 50.8921C192.131 44.5351 187.948 40.1093 181.755 40.1093C175.562 40.1093 171.379 44.5351 171.379 50.8921C171.379 57.2492 175.562 61.675 181.755 61.675ZM210.906 70.7675V50.1647C210.906 36.8052 218.788 29.9641 230.533 29.9641C242.278 29.9641 250.161 36.7233 250.161 50.1647V70.7675H239.301V50.1647C239.301 43.2442 235.761 40.1041 230.533 40.1041C225.306 40.1041 221.765 43.2417 221.765 50.1647V70.7675H210.906ZM264.794 26.6652C260.693 26.6652 257.715 23.6865 257.715 19.5834C257.715 15.4802 260.693 12.5015 264.794 12.5015C268.895 12.5015 271.872 15.4802 271.872 19.5834C271.872 23.6865 268.895 26.6652 264.794 26.6652ZM259.326 70.7675V31.0117H270.185V70.7675H259.326ZM280.691 70.7675V30.3688C280.691 18.459 287.849 12.5835 298.389 12.5835C308.928 12.5835 316.004 18.5384 316.004 30.3688H305.144C305.144 24.7366 302.328 22.7235 298.389 22.7235C294.449 22.7235 291.551 24.816 291.551 30.3688V36.5645H311.096V46.3818H291.551V70.7675H280.691ZM339.09 88.7936C329.679 88.7936 321.956 84.4471 319.864 74.8706H330.724C332.091 78.0081 334.746 79.3784 339.09 79.3784C344.963 79.3784 347.937 76.561 347.937 69.7199V65.2941C345.605 69.1564 341.827 71.249 337.078 71.249C328.392 71.249 319.542 65.4554 319.542 51.0484V31.0091H330.401V51.0484C330.401 57.9689 333.942 61.109 339.169 61.109C344.397 61.109 347.937 57.8101 347.937 51.0484V31.0091H358.797V69.3972C358.797 83.2382 349.949 88.791 339.09 88.791V88.7936Z" fill="#FCFCFC"/>
</g>
<defs>
<clipPath id="clip0_115_248">
<rect width="384" height="113" fill="white"/>
</clipPath>
</defs>
</svg>
