<svg width="161" height="160" viewBox="0 0 161 160" fill="none" xmlns="http://www.w3.org/2000/svg">
<g clip-path="url(#clip0_5_1188)">
<path d="M160.524 32.6098L147.971 106.857L147.862 107.788L140.574 154.667C140.454 155.66 140.156 157.756 139.612 158.504C139.044 159.286 138.225 159.857 137.217 159.977C136.208 160.097 135.217 159.794 134.329 159.378C133.504 158.989 132.788 158.464 132.049 157.944C130.467 156.814 128.852 155.763 127.207 154.718L123.586 152.417C120.486 150.487 117.358 148.557 114.344 146.507C111.801 144.777 109.096 142.807 105.819 142.807H102.312C89.3808 142.807 76.4492 142.807 63.5177 142.807C51.0559 142.807 38.1015 142.71 25.6913 141.665C7.05882 140.095 -2.13136 123.519 0.418287 107.2L13.4874 27.2653C16.1058 11.8711 27.4216 0 40.5881 0H133.43C150.698 0.18272 163.687 12.3793 160.524 32.6098Z" fill="#034EFF"/>
<path d="M81.6861 108.479C60.269 108.479 45.8994 96.2021 45.8994 71.7862V34.3685H65.7006V71.7919C65.7006 84.3653 72.1521 90.0639 81.6861 90.0639C91.22 90.0639 97.6715 84.3653 97.6715 71.7919V34.3685H117.473V71.7919C117.473 96.0594 103.097 108.484 81.6861 108.484V108.479Z" fill="#FCFCFC"/>
</g>
<defs>
<clipPath id="clip0_5_1188">
<rect width="161" height="160" fill="white"/>
</clipPath>
</defs>
</svg>
